<?xml version="1.0" standalone="no"?><!DOCTYPE svg PUBLIC "-//W3C//DTD SVG 1.1//EN" "http://www.w3.org/Graphics/SVG/1.1/DTD/svg11.dtd"><svg class="icon" width="200px" height="116.70px" viewBox="0 0 1755 1024" version="1.1" xmlns="http://www.w3.org/2000/svg"><path fill="#333333" d="M610.742857 855.222857v20.114286c0 5.485714 4.571429 10.057143 10.057143 10.057143h462.445714c5.485714 0 10.057143-4.571429 10.057143-10.057143v-20.114286c0-5.485714-4.571429-10.057143-10.057143-10.057143H620.8c-5.485714 0-10.057143 4.571429-10.057143 10.057143z m409.417143-76.617143c4.022857 0 7.314286-4.571429 7.314286-10.057143v-20.114285c0-5.485714-3.291429-10.057143-7.314286-10.057143H683.885714c-4.022857 0-7.314286 4.571429-7.314285 10.057143v20.114285c0 5.485714 3.291429 10.057143 7.314285 10.057143h336.274286z m215.771429-451.291428c-12.068571 0-21.76 9.691429-21.76 21.76v561.371428c0 31.268571-25.417143 56.685714-56.685715 56.685715H519.862857c-31.268571 0-56.685714-25.417143-56.685714-56.685715V108.982857c0-14.994286 5.851429-29.257143 16.64-40.045714 10.788571-10.788571 24.868571-16.64 39.862857-16.64h399.725714c12.068571 0 21.76-9.691429 21.76-21.76s-9.691429-21.76-21.76-21.76H519.862857c-26.697143 0-51.748571 10.422857-70.765714 29.44-19.017143 19.017143-29.44 44.068571-29.44 70.765714v801.462857c0 55.222857 44.982857 100.205714 100.205714 100.205715H1157.485714c55.222857 0 100.205714-44.982857 100.205715-100.205715V349.257143c0-12.068571-9.691429-21.942857-21.76-21.942857zM658.285714 485.302857l-26.697143 132.571429c-2.377143 11.52 8.045714 21.577143 19.382858 19.017143l130.56-29.257143c14.994286-3.291429 28.525714-10.788571 39.497142-21.76L1239.222857 167.497143c24.685714-24.685714 24.685714-64.731429 0-89.417143l-51.748571-51.748571C1162.788571 1.645714 1122.742857 1.645714 1098.057143 26.331429L680.228571 444.16c-11.154286 11.154286-18.834286 25.6-21.942857 41.142857z m56.685715-22.857143l409.6-409.6c10.057143-10.057143 26.331429-10.057143 36.388571 0l51.748571 51.748572c10.057143 10.057143 10.057143 26.331429 0 36.388571l-409.6 409.6c-4.388571 4.388571-11.702857 4.388571-16.274285 0L714.971429 478.72c-4.571429-4.388571-4.571429-11.702857 0-16.274286z" /></svg>