<?xml version="1.0" standalone="no"?><!DOCTYPE svg PUBLIC "-//W3C//DTD SVG 1.1//EN" "http://www.w3.org/Graphics/SVG/1.1/DTD/svg11.dtd"><svg class="icon" width="200px" height="200.00px" viewBox="0 0 1024 1024" version="1.1" xmlns="http://www.w3.org/2000/svg"><path fill="#333333" d="M512 1024C229.248 1024 0 794.752 0 512S229.248 0 512 0s512 229.248 512 512-229.248 512-512 512z m0-938.666667C276.352 85.333333 85.333333 276.352 85.333333 512s191.018667 426.666667 426.666667 426.666667 426.666667-191.018667 426.666667-426.666667S747.648 85.333333 512 85.333333z m115.754667 755.754667a42.325333 42.325333 0 0 1-59.904 0l-296.789334-296.789333c-0.896-0.725333-2.005333-1.024-2.816-1.877334A41.984 41.984 0 0 1 255.914667 512a41.984 41.984 0 0 1 12.330666-30.421333c0.810667-0.853333 1.92-1.152 2.816-1.877334l296.789334-296.789333a42.325333 42.325333 0 1 1 59.904 59.904L358.570667 512l269.184 269.184a42.325333 42.325333 0 0 1 0 59.904z" /></svg>