<?xml version="1.0" standalone="no"?><!DOCTYPE svg PUBLIC "-//W3C//DTD SVG 1.1//EN" "http://www.w3.org/Graphics/SVG/1.1/DTD/svg11.dtd"><svg class="icon" width="200px" height="199.80px" viewBox="0 0 1025 1024" version="1.1" xmlns="http://www.w3.org/2000/svg"><path fill="#333333" d="M319.2 565.1c-0.7 0.8-1.3 1.7-1.6 2.8L266 755.7c-3 10.9 0.1 22.7 8.2 31 6.1 5.9 14.1 9.2 22.7 9.2 2.8 0 5.6-0.3 8.4-1.1L492.9 744c0.3 0 0.4 0.3 0.7 0.3 2.2 0 4.3-0.8 5.9-2.4l501.5-498.5c14.9-14.8 23.1-35 23.1-57 0-24.9-10.6-49.8-29.2-68.2l-47.4-47.2c-18.6-18.5-43.6-29.1-68.7-29.1-22.1 0-42.4 8.1-57.4 22.9L319.9 563.4C319.4 563.9 319.6 564.6 319.2 565.1M951.9 194.5 902 244l-80.8-81.6 49.1-48.8c7.8-7.8 22.8-6.6 31.7 2.3l47.4 47.2c4.9 4.9 7.8 11.4 7.8 17.9C957.3 186.2 955.4 191 951.9 194.5M408.4 572.9l361.9-359.8 80.8 81.6L489.8 653.9 408.4 572.9 408.4 572.9 408.4 572.9zM342.4 718.8l26.2-95.4 69.8 69.4L342.4 718.8 342.4 718.8 342.4 718.8zM983.6 392c-19 0-34.6 15.4-34.6 34.5l0 464.8c0 24.4-19.9 44.2-44.5 44.2L113.7 935.5c-24.5 0-44.5-19.8-44.5-44.2L69.2 132.7c0-24.4 20-44.2 44.5-44.2L623 88.5c19.1 0 34.6-15.4 34.6-34.4 0-18.9-15.5-34.4-34.6-34.4L108.4 19.7C48.6 19.7 0 68 0 127.5l0 769.1c0 59.5 48.6 107.8 108.4 107.8l801.4 0c59.8 0 108.4-48.3 108.4-107.8L1018.2 426.3C1018.1 407.4 1002.6 392 983.6 392" /></svg>