<?xml version="1.0" standalone="no"?><!DOCTYPE svg PUBLIC "-//W3C//DTD SVG 1.1//EN" "http://www.w3.org/Graphics/SVG/1.1/DTD/svg11.dtd"><svg class="icon" width="200px" height="200.00px" viewBox="0 0 1024 1024" version="1.1" xmlns="http://www.w3.org/2000/svg"><path fill="#333333" d="M795.52 24.512l-168.384-4.48L265.088 20.032c-83.776 0-151.936 68.288-151.936 152l0 680c0 83.776 68.16 152 151.936 152l493.632 0c83.968 0 152.128-68.224 152.128-152L910.848 172.032C910.848 100.8 861.696 40.896 795.52 24.512M872.832 852.032c0 62.848-51.136 114.048-114.048 114.048L265.088 966.08c-62.848 0-113.984-51.2-113.984-114.048L151.104 172.032c0-62.784 51.136-114.048 113.984-114.048l376.96 0L795.52 64c44.992 15.424 77.312 57.856 77.312 107.968L872.832 852.032zM790.848 451.584 233.152 451.584c-16.704 0-30.144 13.568-30.144 30.272 0 16.64 13.44 30.272 30.144 30.272l557.696 0c16.704 0 30.144-13.632 30.144-30.272C820.992 465.152 807.552 451.584 790.848 451.584M790.848 553.152 233.152 553.152c-16.704 0-30.144 13.568-30.144 30.208 0 16.704 13.44 30.272 30.144 30.272l557.696 0c16.704 0 30.144-13.568 30.144-30.272C820.992 566.72 807.552 553.152 790.848 553.152M790.848 645.248 233.152 645.248c-16.704 0-30.144 13.44-30.144 30.208s13.44 30.208 30.144 30.208l557.696 0c16.704 0 30.144-13.44 30.144-30.208S807.552 645.248 790.848 645.248" /></svg>